<?xml version="1.0" encoding="UTF-8" standalone="no"?>
<!DOCTYPE svg PUBLIC "-//W3C//DTD SVG 1.1//EN"
 "http://www.w3.org/Graphics/SVG/1.1/DTD/svg11.dtd">
<!-- Generated by graphviz version 2.40.1 (20161225.0304)
      -->
<!-- Title: G Pages: 1 -->
<svg width="512pt" height="170pt"
 viewBox="0.00 0.00 512.00 170.00" xmlns="http://www.w3.org/2000/svg" xmlns:xlink="http://www.w3.org/1999/xlink">
<g id="graph0" class="graph" transform="scale(1 1) rotate(0) translate(4 166)">
<title>G</title>
<polygon fill="#ffffff" stroke="transparent" points="-4,4 -4,-166 508,-166 508,4 -4,4"/>
<!-- users -->
<g id="node1" class="node">
<title>users</title>
<path fill="#f0f8ff" stroke="#000000" d="M60,-162C60,-162 12,-162 12,-162 6,-162 0,-156 0,-150 0,-150 0,-102 0,-102 0,-96 6,-90 12,-90 12,-90 60,-90 60,-90 66,-90 72,-96 72,-102 72,-102 72,-150 72,-150 72,-156 66,-162 60,-162"/>
<text text-anchor="middle" x="36" y="-121.8" font-family="Times,serif" font-size="14.00" fill="#000000">users</text>
</g>
<!-- connect -->
<g id="node3" class="node">
<title>connect</title>
<ellipse fill="#d3d3d3" stroke="#000000" cx="144" cy="-81" rx="36" ry="36"/>
<text text-anchor="middle" x="144" y="-76.8" font-family="Times,serif" font-size="14.00" fill="#000000">connect</text>
</g>
<!-- users&#45;&gt;connect -->
<g id="edge1" class="edge">
<title>users&#45;&gt;connect</title>
<path fill="none" stroke="#000000" d="M72.2629,-110.8905C81.5467,-107.0222 91.6174,-102.8261 101.1965,-98.8348"/>
<polygon fill="#000000" stroke="#000000" points="102.6797,-102.0085 110.5643,-94.9315 99.9873,-95.547 102.6797,-102.0085"/>
</g>
<!-- orders -->
<g id="node2" class="node">
<title>orders</title>
<path fill="#f0f8ff" stroke="#000000" d="M60,-72C60,-72 12,-72 12,-72 6,-72 0,-66 0,-60 0,-60 0,-12 0,-12 0,-6 6,0 12,0 12,0 60,0 60,0 66,0 72,-6 72,-12 72,-12 72,-60 72,-60 72,-66 66,-72 60,-72"/>
<text text-anchor="middle" x="36" y="-31.8" font-family="Times,serif" font-size="14.00" fill="#000000">orders</text>
</g>
<!-- orders&#45;&gt;connect -->
<g id="edge2" class="edge">
<title>orders&#45;&gt;connect</title>
<path fill="none" stroke="#000000" d="M72.2629,-51.1095C81.5467,-54.9778 91.6174,-59.1739 101.1965,-63.1652"/>
<polygon fill="#000000" stroke="#000000" points="99.9873,-66.453 110.5643,-67.0685 102.6797,-59.9915 99.9873,-66.453"/>
</g>
<!-- cdc_users -->
<g id="node5" class="node">
<title>cdc_users</title>
<path fill="#b0c4de" stroke="#000000" d="M276,-162C276,-162 228,-162 228,-162 222,-162 216,-156 216,-150 216,-150 216,-102 216,-102 216,-96 222,-90 228,-90 228,-90 276,-90 276,-90 282,-90 288,-96 288,-102 288,-102 288,-150 288,-150 288,-156 282,-162 276,-162"/>
<text text-anchor="middle" x="252" y="-121.8" font-family="Times,serif" font-size="14.00" fill="#000000"> cdc_users </text>
</g>
<!-- connect&#45;&gt;cdc_users -->
<g id="edge3" class="edge">
<title>connect&#45;&gt;cdc_users</title>
<path fill="none" stroke="#000000" d="M177.2848,-94.8687C186.3956,-98.6648 196.4338,-102.8474 206.1157,-106.8815"/>
<polygon fill="#000000" stroke="#000000" points="205.0544,-110.231 215.6314,-110.8464 207.7468,-103.7694 205.0544,-110.231"/>
</g>
<!-- cdc_orders -->
<g id="node6" class="node">
<title>cdc_orders</title>
<path fill="#b0c4de" stroke="#000000" d="M276,-72C276,-72 228,-72 228,-72 222,-72 216,-66 216,-60 216,-60 216,-12 216,-12 216,-6 222,0 228,0 228,0 276,0 276,0 282,0 288,-6 288,-12 288,-12 288,-60 288,-60 288,-66 282,-72 276,-72"/>
<text text-anchor="middle" x="252" y="-31.8" font-family="Times,serif" font-size="14.00" fill="#000000">cdc_orders</text>
</g>
<!-- connect&#45;&gt;cdc_orders -->
<g id="edge4" class="edge">
<title>connect&#45;&gt;cdc_orders</title>
<path fill="none" stroke="#000000" d="M177.2848,-67.1313C186.3956,-63.3352 196.4338,-59.1526 206.1157,-55.1185"/>
<polygon fill="#000000" stroke="#000000" points="207.7468,-58.2306 215.6314,-51.1536 205.0544,-51.769 207.7468,-58.2306"/>
</g>
<!-- processor -->
<g id="node4" class="node">
<title>processor</title>
<ellipse fill="#d3d3d3" stroke="#000000" cx="360" cy="-81" rx="36" ry="36"/>
<text text-anchor="middle" x="360" y="-85.2" font-family="Times,serif" font-size="14.00" fill="#000000">stream</text>
<text text-anchor="middle" x="360" y="-68.4" font-family="Times,serif" font-size="14.00" fill="#000000">processor</text>
</g>
<!-- user_order_events -->
<g id="node7" class="node">
<title>user_order_events</title>
<path fill="#b0c4de" stroke="#000000" d="M492,-117C492,-117 444,-117 444,-117 438,-117 432,-111 432,-105 432,-105 432,-57 432,-57 432,-51 438,-45 444,-45 444,-45 492,-45 492,-45 498,-45 504,-51 504,-57 504,-57 504,-105 504,-105 504,-111 498,-117 492,-117"/>
<text text-anchor="middle" x="468" y="-85.2" font-family="Times,serif" font-size="14.00" fill="#000000">user order</text>
<text text-anchor="middle" x="468" y="-68.4" font-family="Times,serif" font-size="14.00" fill="#000000">events</text>
</g>
<!-- processor&#45;&gt;user_order_events -->
<g id="edge7" class="edge">
<title>processor&#45;&gt;user_order_events</title>
<path fill="none" stroke="#000000" d="M396.2629,-81C404.3661,-81 413.0689,-81 421.5209,-81"/>
<polygon fill="#000000" stroke="#000000" points="421.649,-84.5001 431.649,-81 421.649,-77.5001 421.649,-84.5001"/>
</g>
<!-- cdc_users&#45;&gt;processor -->
<g id="edge5" class="edge">
<title>cdc_users&#45;&gt;processor</title>
<path fill="none" stroke="#000000" d="M288.2629,-110.8905C297.5467,-107.0222 307.6174,-102.8261 317.1965,-98.8348"/>
<polygon fill="#000000" stroke="#000000" points="318.6797,-102.0085 326.5643,-94.9315 315.9873,-95.547 318.6797,-102.0085"/>
</g>
<!-- cdc_orders&#45;&gt;processor -->
<g id="edge6" class="edge">
<title>cdc_orders&#45;&gt;processor</title>
<path fill="none" stroke="#000000" d="M288.2629,-51.1095C297.5467,-54.9778 307.6174,-59.1739 317.1965,-63.1652"/>
<polygon fill="#000000" stroke="#000000" points="315.9873,-66.453 326.5643,-67.0685 318.6797,-59.9915 315.9873,-66.453"/>
</g>
</g>
</svg>
