<?xml version="1.0" encoding="UTF-8" standalone="no"?>
<!DOCTYPE svg PUBLIC "-//W3C//DTD SVG 1.1//EN"
 "http://www.w3.org/Graphics/SVG/1.1/DTD/svg11.dtd">
<!-- Generated by graphviz version 2.40.1 (20161225.0304)
      -->
<!-- Title: plan_graph Pages: 1 -->
<svg width="404pt" height="202pt"
 viewBox="0.00 0.00 404.00 202.00" xmlns="http://www.w3.org/2000/svg" xmlns:xlink="http://www.w3.org/1999/xlink">
<g id="graph0" class="graph" transform="scale(1 1) rotate(0) translate(4 198)">
<title>plan_graph</title>
<polygon fill="#ffffff" stroke="transparent" points="-4,4 -4,-198 400,-198 400,4 -4,4"/>
<!-- connect -->
<g id="node1" class="node">
<title>connect</title>
<ellipse fill="#ffa07a" stroke="#000000" cx="36" cy="-142" rx="36" ry="36"/>
<text text-anchor="middle" x="36" y="-146.2" font-family="Times,serif" font-size="14.00" fill="#000000">JDBC</text>
<text text-anchor="middle" x="36" y="-129.4" font-family="Times,serif" font-size="14.00" fill="#000000">Connector</text>
</g>
<!-- registry -->
<g id="node3" class="node">
<title>registry</title>
<ellipse fill="#d3d3d3" stroke="#000000" cx="144" cy="-142" rx="36" ry="36"/>
<text text-anchor="middle" x="144" y="-146.2" font-family="Times,serif" font-size="14.00" fill="#000000">Schema</text>
<text text-anchor="middle" x="144" y="-129.4" font-family="Times,serif" font-size="14.00" fill="#000000">Registry</text>
</g>
<!-- connect&#45;&gt;registry -->
<g id="edge5" class="edge">
<title>connect&#45;&gt;registry</title>
<path fill="none" stroke="#000000" d="M72.2629,-142C83.6609,-142 96.2449,-142 107.649,-142"/>
</g>
<!-- processor -->
<g id="node2" class="node">
<title>processor</title>
<ellipse fill="#ffa07a" stroke="#000000" cx="36" cy="-36" rx="36" ry="36"/>
<text text-anchor="middle" x="36" y="-40.2" font-family="Times,serif" font-size="14.00" fill="#000000">Stream</text>
<text text-anchor="middle" x="36" y="-23.4" font-family="Times,serif" font-size="14.00" fill="#000000">Processor</text>
</g>
<!-- processor&#45;&gt;registry -->
<g id="edge6" class="edge">
<title>processor&#45;&gt;registry</title>
<path fill="none" stroke="#000000" d="M61.8687,-61.3896C78.8426,-78.0492 100.9613,-99.7584 117.9681,-116.4502"/>
</g>
<!-- atlas -->
<g id="node7" class="node">
<title>atlas</title>
<ellipse fill="#d3d3d3" stroke="#000000" cx="360" cy="-36" rx="36" ry="36"/>
<text text-anchor="middle" x="360" y="-31.8" font-family="Times,serif" font-size="14.00" fill="#000000">Atlas</text>
</g>
<!-- processor&#45;&gt;atlas -->
<g id="edge7" class="edge">
<title>processor&#45;&gt;atlas</title>
<path fill="none" stroke="#000000" d="M71.9487,-30.97C120.8937,-24.8462 211.2049,-16.1227 288,-23 296.6386,-23.7736 305.7911,-25.0594 314.5689,-26.5291"/>
<polygon fill="#000000" stroke="#000000" points="314.1899,-30.0165 324.6478,-28.3192 315.414,-23.1243 314.1899,-30.0165"/>
</g>
<!-- _schemas -->
<g id="node4" class="node">
<title>_schemas</title>
<path fill="#b0c4de" stroke="#000000" d="M276,-194C276,-194 228,-194 228,-194 222,-194 216,-188 216,-182 216,-182 216,-134 216,-134 216,-128 222,-122 228,-122 228,-122 276,-122 276,-122 282,-122 288,-128 288,-134 288,-134 288,-182 288,-182 288,-188 282,-194 276,-194"/>
<text text-anchor="middle" x="252" y="-153.8" font-family="Times,serif" font-size="14.00" fill="#000000">_schemas</text>
</g>
<!-- registry&#45;&gt;_schemas -->
<g id="edge4" class="edge">
<title>registry&#45;&gt;_schemas</title>
<path fill="none" stroke="#000000" d="M179.6626,-147.2833C187.9648,-148.5133 196.9233,-149.8405 205.6134,-151.1279"/>
<polygon fill="#000000" stroke="#000000" points="205.2311,-154.6094 215.6361,-152.6128 206.257,-147.685 205.2311,-154.6094"/>
</g>
<!-- atlas_hook -->
<g id="node6" class="node">
<title>atlas_hook</title>
<ellipse fill="#ffa07a" stroke="#000000" cx="360" cy="-142" rx="36" ry="36"/>
<text text-anchor="middle" x="360" y="-146.2" font-family="Times,serif" font-size="14.00" fill="#000000">Atlas</text>
<text text-anchor="middle" x="360" y="-129.4" font-family="Times,serif" font-size="14.00" fill="#000000">Hook</text>
</g>
<!-- _schemas&#45;&gt;atlas_hook -->
<g id="edge1" class="edge">
<title>_schemas&#45;&gt;atlas_hook</title>
<path fill="none" stroke="#000000" d="M288.2629,-152.6277C296.6314,-151.3879 305.6392,-150.0535 314.35,-148.763"/>
<polygon fill="#000000" stroke="#000000" points="315.004,-152.2044 324.3831,-147.2766 313.9781,-145.2799 315.004,-152.2044"/>
</g>
<!-- ATLAS_HOOK -->
<g id="node5" class="node">
<title>ATLAS_HOOK</title>
<path fill="#b0c4de" stroke="#000000" d="M276,-104C276,-104 228,-104 228,-104 222,-104 216,-98 216,-92 216,-92 216,-44 216,-44 216,-38 222,-32 228,-32 228,-32 276,-32 276,-32 282,-32 288,-38 288,-44 288,-44 288,-92 288,-92 288,-98 282,-104 276,-104"/>
<text text-anchor="middle" x="252" y="-65" font-family="Times,serif" font-size="10.00" fill="#000000">ATLAS_HOOK</text>
</g>
<!-- ATLAS_HOOK&#45;&gt;atlas -->
<g id="edge3" class="edge">
<title>ATLAS_HOOK&#45;&gt;atlas</title>
<path fill="none" stroke="#000000" d="M288.2629,-57.2554C297.0833,-54.642 306.614,-51.8181 315.7585,-49.1086"/>
<polygon fill="#000000" stroke="#000000" points="316.8841,-52.4256 325.4778,-46.2288 314.8954,-45.714 316.8841,-52.4256"/>
</g>
<!-- atlas_hook&#45;&gt;ATLAS_HOOK -->
<g id="edge2" class="edge">
<title>atlas_hook&#45;&gt;ATLAS_HOOK</title>
<path fill="none" stroke="#000000" d="M330.121,-121.5273C319.7931,-114.4509 307.9837,-106.3592 296.7283,-98.6472"/>
<polygon fill="#000000" stroke="#000000" points="298.4905,-95.6119 288.2629,-92.8468 294.5339,-101.3864 298.4905,-95.6119"/>
</g>
</g>
</svg>
